%TF.GenerationSoftware,KiCad,Pcbnew,9.0.1*%
%TF.CreationDate,2026-04-16T12:08:20+02:00*%
%TF.ProjectId,Projet_s6_oscillovpresquefinal,50726f6a-6574-45f7-9336-5f6f7363696c,rev?*%
%TF.SameCoordinates,Original*%
%TF.FileFunction,Legend,Top*%
%TF.FilePolarity,Positive*%
%FSLAX46Y46*%
G04 Gerber Fmt 4.6, Leading zero omitted, Abs format (unit mm)*
G04 Created by KiCad (PCBNEW 9.0.1) date 2026-04-16 12:08:20*
%MOMM*%
%LPD*%
G01*
G04 APERTURE LIST*
%ADD10C,0.150000*%
%ADD11C,0.254000*%
%ADD12C,0.120000*%
%ADD13C,0.250000*%
%ADD14C,0.100000*%
%ADD15C,0.200000*%
G04 APERTURE END LIST*
D10*
X211307494Y-50139411D02*
X211259875Y-50234649D01*
X211259875Y-50234649D02*
X211259875Y-50377506D01*
X211259875Y-50377506D02*
X211307494Y-50520363D01*
X211307494Y-50520363D02*
X211402732Y-50615601D01*
X211402732Y-50615601D02*
X211497970Y-50663220D01*
X211497970Y-50663220D02*
X211688446Y-50710839D01*
X211688446Y-50710839D02*
X211831303Y-50710839D01*
X211831303Y-50710839D02*
X212021779Y-50663220D01*
X212021779Y-50663220D02*
X212117017Y-50615601D01*
X212117017Y-50615601D02*
X212212256Y-50520363D01*
X212212256Y-50520363D02*
X212259875Y-50377506D01*
X212259875Y-50377506D02*
X212259875Y-50282268D01*
X212259875Y-50282268D02*
X212212256Y-50139411D01*
X212212256Y-50139411D02*
X212164636Y-50091792D01*
X212164636Y-50091792D02*
X211831303Y-50091792D01*
X211831303Y-50091792D02*
X211831303Y-50282268D01*
X212164636Y-49663220D02*
X212212256Y-49615601D01*
X212212256Y-49615601D02*
X212259875Y-49663220D01*
X212259875Y-49663220D02*
X212212256Y-49710839D01*
X212212256Y-49710839D02*
X212164636Y-49663220D01*
X212164636Y-49663220D02*
X212259875Y-49663220D01*
X211736065Y-48091792D02*
X211783684Y-47948935D01*
X211783684Y-47948935D02*
X211831303Y-47901316D01*
X211831303Y-47901316D02*
X211926541Y-47853697D01*
X211926541Y-47853697D02*
X212069398Y-47853697D01*
X212069398Y-47853697D02*
X212164636Y-47901316D01*
X212164636Y-47901316D02*
X212212256Y-47948935D01*
X212212256Y-47948935D02*
X212259875Y-48044173D01*
X212259875Y-48044173D02*
X212259875Y-48425125D01*
X212259875Y-48425125D02*
X211259875Y-48425125D01*
X211259875Y-48425125D02*
X211259875Y-48091792D01*
X211259875Y-48091792D02*
X211307494Y-47996554D01*
X211307494Y-47996554D02*
X211355113Y-47948935D01*
X211355113Y-47948935D02*
X211450351Y-47901316D01*
X211450351Y-47901316D02*
X211545589Y-47901316D01*
X211545589Y-47901316D02*
X211640827Y-47948935D01*
X211640827Y-47948935D02*
X211688446Y-47996554D01*
X211688446Y-47996554D02*
X211736065Y-48091792D01*
X211736065Y-48091792D02*
X211736065Y-48425125D01*
X212259875Y-47282268D02*
X212212256Y-47377506D01*
X212212256Y-47377506D02*
X212164636Y-47425125D01*
X212164636Y-47425125D02*
X212069398Y-47472744D01*
X212069398Y-47472744D02*
X211783684Y-47472744D01*
X211783684Y-47472744D02*
X211688446Y-47425125D01*
X211688446Y-47425125D02*
X211640827Y-47377506D01*
X211640827Y-47377506D02*
X211593208Y-47282268D01*
X211593208Y-47282268D02*
X211593208Y-47139411D01*
X211593208Y-47139411D02*
X211640827Y-47044173D01*
X211640827Y-47044173D02*
X211688446Y-46996554D01*
X211688446Y-46996554D02*
X211783684Y-46948935D01*
X211783684Y-46948935D02*
X212069398Y-46948935D01*
X212069398Y-46948935D02*
X212164636Y-46996554D01*
X212164636Y-46996554D02*
X212212256Y-47044173D01*
X212212256Y-47044173D02*
X212259875Y-47139411D01*
X212259875Y-47139411D02*
X212259875Y-47282268D01*
X211593208Y-46091792D02*
X212259875Y-46091792D01*
X211593208Y-46520363D02*
X212117017Y-46520363D01*
X212117017Y-46520363D02*
X212212256Y-46472744D01*
X212212256Y-46472744D02*
X212259875Y-46377506D01*
X212259875Y-46377506D02*
X212259875Y-46234649D01*
X212259875Y-46234649D02*
X212212256Y-46139411D01*
X212212256Y-46139411D02*
X212164636Y-46091792D01*
X212259875Y-45187030D02*
X211259875Y-45187030D01*
X212212256Y-45187030D02*
X212259875Y-45282268D01*
X212259875Y-45282268D02*
X212259875Y-45472744D01*
X212259875Y-45472744D02*
X212212256Y-45567982D01*
X212212256Y-45567982D02*
X212164636Y-45615601D01*
X212164636Y-45615601D02*
X212069398Y-45663220D01*
X212069398Y-45663220D02*
X211783684Y-45663220D01*
X211783684Y-45663220D02*
X211688446Y-45615601D01*
X211688446Y-45615601D02*
X211640827Y-45567982D01*
X211640827Y-45567982D02*
X211593208Y-45472744D01*
X211593208Y-45472744D02*
X211593208Y-45282268D01*
X211593208Y-45282268D02*
X211640827Y-45187030D01*
X212259875Y-44567982D02*
X212212256Y-44663220D01*
X212212256Y-44663220D02*
X212164636Y-44710839D01*
X212164636Y-44710839D02*
X212069398Y-44758458D01*
X212069398Y-44758458D02*
X211783684Y-44758458D01*
X211783684Y-44758458D02*
X211688446Y-44710839D01*
X211688446Y-44710839D02*
X211640827Y-44663220D01*
X211640827Y-44663220D02*
X211593208Y-44567982D01*
X211593208Y-44567982D02*
X211593208Y-44425125D01*
X211593208Y-44425125D02*
X211640827Y-44329887D01*
X211640827Y-44329887D02*
X211688446Y-44282268D01*
X211688446Y-44282268D02*
X211783684Y-44234649D01*
X211783684Y-44234649D02*
X212069398Y-44234649D01*
X212069398Y-44234649D02*
X212164636Y-44282268D01*
X212164636Y-44282268D02*
X212212256Y-44329887D01*
X212212256Y-44329887D02*
X212259875Y-44425125D01*
X212259875Y-44425125D02*
X212259875Y-44567982D01*
X211593208Y-43377506D02*
X212259875Y-43377506D01*
X211593208Y-43806077D02*
X212117017Y-43806077D01*
X212117017Y-43806077D02*
X212212256Y-43758458D01*
X212212256Y-43758458D02*
X212259875Y-43663220D01*
X212259875Y-43663220D02*
X212259875Y-43520363D01*
X212259875Y-43520363D02*
X212212256Y-43425125D01*
X212212256Y-43425125D02*
X212164636Y-43377506D01*
X212259875Y-42996553D02*
X211593208Y-42472744D01*
X211593208Y-42996553D02*
X212259875Y-42472744D01*
X212259875Y-41329886D02*
X211259875Y-41329886D01*
X211259875Y-41329886D02*
X211259875Y-41091791D01*
X211259875Y-41091791D02*
X211307494Y-40948934D01*
X211307494Y-40948934D02*
X211402732Y-40853696D01*
X211402732Y-40853696D02*
X211497970Y-40806077D01*
X211497970Y-40806077D02*
X211688446Y-40758458D01*
X211688446Y-40758458D02*
X211831303Y-40758458D01*
X211831303Y-40758458D02*
X212021779Y-40806077D01*
X212021779Y-40806077D02*
X212117017Y-40853696D01*
X212117017Y-40853696D02*
X212212256Y-40948934D01*
X212212256Y-40948934D02*
X212259875Y-41091791D01*
X212259875Y-41091791D02*
X212259875Y-41329886D01*
X212164636Y-40329886D02*
X212212256Y-40282267D01*
X212212256Y-40282267D02*
X212259875Y-40329886D01*
X212259875Y-40329886D02*
X212212256Y-40377505D01*
X212212256Y-40377505D02*
X212164636Y-40329886D01*
X212164636Y-40329886D02*
X212259875Y-40329886D01*
X212869819Y-50472744D02*
X212869819Y-50282268D01*
X212869819Y-50282268D02*
X212917438Y-50187030D01*
X212917438Y-50187030D02*
X213012676Y-50091792D01*
X213012676Y-50091792D02*
X213203152Y-50044173D01*
X213203152Y-50044173D02*
X213536485Y-50044173D01*
X213536485Y-50044173D02*
X213726961Y-50091792D01*
X213726961Y-50091792D02*
X213822200Y-50187030D01*
X213822200Y-50187030D02*
X213869819Y-50282268D01*
X213869819Y-50282268D02*
X213869819Y-50472744D01*
X213869819Y-50472744D02*
X213822200Y-50567982D01*
X213822200Y-50567982D02*
X213726961Y-50663220D01*
X213726961Y-50663220D02*
X213536485Y-50710839D01*
X213536485Y-50710839D02*
X213203152Y-50710839D01*
X213203152Y-50710839D02*
X213012676Y-50663220D01*
X213012676Y-50663220D02*
X212917438Y-50567982D01*
X212917438Y-50567982D02*
X212869819Y-50472744D01*
X213822200Y-49663220D02*
X213869819Y-49567982D01*
X213869819Y-49567982D02*
X213869819Y-49377506D01*
X213869819Y-49377506D02*
X213822200Y-49282268D01*
X213822200Y-49282268D02*
X213726961Y-49234649D01*
X213726961Y-49234649D02*
X213679342Y-49234649D01*
X213679342Y-49234649D02*
X213584104Y-49282268D01*
X213584104Y-49282268D02*
X213536485Y-49377506D01*
X213536485Y-49377506D02*
X213536485Y-49520363D01*
X213536485Y-49520363D02*
X213488866Y-49615601D01*
X213488866Y-49615601D02*
X213393628Y-49663220D01*
X213393628Y-49663220D02*
X213346009Y-49663220D01*
X213346009Y-49663220D02*
X213250771Y-49615601D01*
X213250771Y-49615601D02*
X213203152Y-49520363D01*
X213203152Y-49520363D02*
X213203152Y-49377506D01*
X213203152Y-49377506D02*
X213250771Y-49282268D01*
X213822200Y-48377506D02*
X213869819Y-48472744D01*
X213869819Y-48472744D02*
X213869819Y-48663220D01*
X213869819Y-48663220D02*
X213822200Y-48758458D01*
X213822200Y-48758458D02*
X213774580Y-48806077D01*
X213774580Y-48806077D02*
X213679342Y-48853696D01*
X213679342Y-48853696D02*
X213393628Y-48853696D01*
X213393628Y-48853696D02*
X213298390Y-48806077D01*
X213298390Y-48806077D02*
X213250771Y-48758458D01*
X213250771Y-48758458D02*
X213203152Y-48663220D01*
X213203152Y-48663220D02*
X213203152Y-48472744D01*
X213203152Y-48472744D02*
X213250771Y-48377506D01*
X213869819Y-47948934D02*
X213203152Y-47948934D01*
X212869819Y-47948934D02*
X212917438Y-47996553D01*
X212917438Y-47996553D02*
X212965057Y-47948934D01*
X212965057Y-47948934D02*
X212917438Y-47901315D01*
X212917438Y-47901315D02*
X212869819Y-47948934D01*
X212869819Y-47948934D02*
X212965057Y-47948934D01*
X213869819Y-47329887D02*
X213822200Y-47425125D01*
X213822200Y-47425125D02*
X213726961Y-47472744D01*
X213726961Y-47472744D02*
X212869819Y-47472744D01*
X213869819Y-46806077D02*
X213822200Y-46901315D01*
X213822200Y-46901315D02*
X213726961Y-46948934D01*
X213726961Y-46948934D02*
X212869819Y-46948934D01*
X213869819Y-46282267D02*
X213822200Y-46377505D01*
X213822200Y-46377505D02*
X213774580Y-46425124D01*
X213774580Y-46425124D02*
X213679342Y-46472743D01*
X213679342Y-46472743D02*
X213393628Y-46472743D01*
X213393628Y-46472743D02*
X213298390Y-46425124D01*
X213298390Y-46425124D02*
X213250771Y-46377505D01*
X213250771Y-46377505D02*
X213203152Y-46282267D01*
X213203152Y-46282267D02*
X213203152Y-46139410D01*
X213203152Y-46139410D02*
X213250771Y-46044172D01*
X213250771Y-46044172D02*
X213298390Y-45996553D01*
X213298390Y-45996553D02*
X213393628Y-45948934D01*
X213393628Y-45948934D02*
X213679342Y-45948934D01*
X213679342Y-45948934D02*
X213774580Y-45996553D01*
X213774580Y-45996553D02*
X213822200Y-46044172D01*
X213822200Y-46044172D02*
X213869819Y-46139410D01*
X213869819Y-46139410D02*
X213869819Y-46282267D01*
X213203152Y-44853695D02*
X213869819Y-44663219D01*
X213869819Y-44663219D02*
X213393628Y-44472743D01*
X213393628Y-44472743D02*
X213869819Y-44282267D01*
X213869819Y-44282267D02*
X213203152Y-44091791D01*
X213869819Y-43710838D02*
X213203152Y-43710838D01*
X212869819Y-43710838D02*
X212917438Y-43758457D01*
X212917438Y-43758457D02*
X212965057Y-43710838D01*
X212965057Y-43710838D02*
X212917438Y-43663219D01*
X212917438Y-43663219D02*
X212869819Y-43710838D01*
X212869819Y-43710838D02*
X212965057Y-43710838D01*
X213869819Y-43234648D02*
X213203152Y-43234648D01*
X213393628Y-43234648D02*
X213298390Y-43187029D01*
X213298390Y-43187029D02*
X213250771Y-43139410D01*
X213250771Y-43139410D02*
X213203152Y-43044172D01*
X213203152Y-43044172D02*
X213203152Y-42948934D01*
X213822200Y-42234648D02*
X213869819Y-42329886D01*
X213869819Y-42329886D02*
X213869819Y-42520362D01*
X213869819Y-42520362D02*
X213822200Y-42615600D01*
X213822200Y-42615600D02*
X213726961Y-42663219D01*
X213726961Y-42663219D02*
X213346009Y-42663219D01*
X213346009Y-42663219D02*
X213250771Y-42615600D01*
X213250771Y-42615600D02*
X213203152Y-42520362D01*
X213203152Y-42520362D02*
X213203152Y-42329886D01*
X213203152Y-42329886D02*
X213250771Y-42234648D01*
X213250771Y-42234648D02*
X213346009Y-42187029D01*
X213346009Y-42187029D02*
X213441247Y-42187029D01*
X213441247Y-42187029D02*
X213536485Y-42663219D01*
X213869819Y-41615600D02*
X213822200Y-41710838D01*
X213822200Y-41710838D02*
X213726961Y-41758457D01*
X213726961Y-41758457D02*
X212869819Y-41758457D01*
X213822200Y-40853695D02*
X213869819Y-40948933D01*
X213869819Y-40948933D02*
X213869819Y-41139409D01*
X213869819Y-41139409D02*
X213822200Y-41234647D01*
X213822200Y-41234647D02*
X213726961Y-41282266D01*
X213726961Y-41282266D02*
X213346009Y-41282266D01*
X213346009Y-41282266D02*
X213250771Y-41234647D01*
X213250771Y-41234647D02*
X213203152Y-41139409D01*
X213203152Y-41139409D02*
X213203152Y-40948933D01*
X213203152Y-40948933D02*
X213250771Y-40853695D01*
X213250771Y-40853695D02*
X213346009Y-40806076D01*
X213346009Y-40806076D02*
X213441247Y-40806076D01*
X213441247Y-40806076D02*
X213536485Y-41282266D01*
X213822200Y-40425123D02*
X213869819Y-40329885D01*
X213869819Y-40329885D02*
X213869819Y-40139409D01*
X213869819Y-40139409D02*
X213822200Y-40044171D01*
X213822200Y-40044171D02*
X213726961Y-39996552D01*
X213726961Y-39996552D02*
X213679342Y-39996552D01*
X213679342Y-39996552D02*
X213584104Y-40044171D01*
X213584104Y-40044171D02*
X213536485Y-40139409D01*
X213536485Y-40139409D02*
X213536485Y-40282266D01*
X213536485Y-40282266D02*
X213488866Y-40377504D01*
X213488866Y-40377504D02*
X213393628Y-40425123D01*
X213393628Y-40425123D02*
X213346009Y-40425123D01*
X213346009Y-40425123D02*
X213250771Y-40377504D01*
X213250771Y-40377504D02*
X213203152Y-40282266D01*
X213203152Y-40282266D02*
X213203152Y-40139409D01*
X213203152Y-40139409D02*
X213250771Y-40044171D01*
X213822200Y-39615599D02*
X213869819Y-39520361D01*
X213869819Y-39520361D02*
X213869819Y-39329885D01*
X213869819Y-39329885D02*
X213822200Y-39234647D01*
X213822200Y-39234647D02*
X213726961Y-39187028D01*
X213726961Y-39187028D02*
X213679342Y-39187028D01*
X213679342Y-39187028D02*
X213584104Y-39234647D01*
X213584104Y-39234647D02*
X213536485Y-39329885D01*
X213536485Y-39329885D02*
X213536485Y-39472742D01*
X213536485Y-39472742D02*
X213488866Y-39567980D01*
X213488866Y-39567980D02*
X213393628Y-39615599D01*
X213393628Y-39615599D02*
X213346009Y-39615599D01*
X213346009Y-39615599D02*
X213250771Y-39567980D01*
X213250771Y-39567980D02*
X213203152Y-39472742D01*
X213203152Y-39472742D02*
X213203152Y-39329885D01*
X213203152Y-39329885D02*
X213250771Y-39234647D01*
X225754819Y-112233333D02*
X226469104Y-112233333D01*
X226469104Y-112233333D02*
X226611961Y-112280952D01*
X226611961Y-112280952D02*
X226707200Y-112376190D01*
X226707200Y-112376190D02*
X226754819Y-112519047D01*
X226754819Y-112519047D02*
X226754819Y-112614285D01*
X225754819Y-111852380D02*
X225754819Y-111233333D01*
X225754819Y-111233333D02*
X226135771Y-111566666D01*
X226135771Y-111566666D02*
X226135771Y-111423809D01*
X226135771Y-111423809D02*
X226183390Y-111328571D01*
X226183390Y-111328571D02*
X226231009Y-111280952D01*
X226231009Y-111280952D02*
X226326247Y-111233333D01*
X226326247Y-111233333D02*
X226564342Y-111233333D01*
X226564342Y-111233333D02*
X226659580Y-111280952D01*
X226659580Y-111280952D02*
X226707200Y-111328571D01*
X226707200Y-111328571D02*
X226754819Y-111423809D01*
X226754819Y-111423809D02*
X226754819Y-111709523D01*
X226754819Y-111709523D02*
X226707200Y-111804761D01*
X226707200Y-111804761D02*
X226659580Y-111852380D01*
X230514580Y-97292857D02*
X230562200Y-97340476D01*
X230562200Y-97340476D02*
X230609819Y-97483333D01*
X230609819Y-97483333D02*
X230609819Y-97578571D01*
X230609819Y-97578571D02*
X230562200Y-97721428D01*
X230562200Y-97721428D02*
X230466961Y-97816666D01*
X230466961Y-97816666D02*
X230371723Y-97864285D01*
X230371723Y-97864285D02*
X230181247Y-97911904D01*
X230181247Y-97911904D02*
X230038390Y-97911904D01*
X230038390Y-97911904D02*
X229847914Y-97864285D01*
X229847914Y-97864285D02*
X229752676Y-97816666D01*
X229752676Y-97816666D02*
X229657438Y-97721428D01*
X229657438Y-97721428D02*
X229609819Y-97578571D01*
X229609819Y-97578571D02*
X229609819Y-97483333D01*
X229609819Y-97483333D02*
X229657438Y-97340476D01*
X229657438Y-97340476D02*
X229705057Y-97292857D01*
X230609819Y-96340476D02*
X230609819Y-96911904D01*
X230609819Y-96626190D02*
X229609819Y-96626190D01*
X229609819Y-96626190D02*
X229752676Y-96721428D01*
X229752676Y-96721428D02*
X229847914Y-96816666D01*
X229847914Y-96816666D02*
X229895533Y-96911904D01*
X229609819Y-95721428D02*
X229609819Y-95626190D01*
X229609819Y-95626190D02*
X229657438Y-95530952D01*
X229657438Y-95530952D02*
X229705057Y-95483333D01*
X229705057Y-95483333D02*
X229800295Y-95435714D01*
X229800295Y-95435714D02*
X229990771Y-95388095D01*
X229990771Y-95388095D02*
X230228866Y-95388095D01*
X230228866Y-95388095D02*
X230419342Y-95435714D01*
X230419342Y-95435714D02*
X230514580Y-95483333D01*
X230514580Y-95483333D02*
X230562200Y-95530952D01*
X230562200Y-95530952D02*
X230609819Y-95626190D01*
X230609819Y-95626190D02*
X230609819Y-95721428D01*
X230609819Y-95721428D02*
X230562200Y-95816666D01*
X230562200Y-95816666D02*
X230514580Y-95864285D01*
X230514580Y-95864285D02*
X230419342Y-95911904D01*
X230419342Y-95911904D02*
X230228866Y-95959523D01*
X230228866Y-95959523D02*
X229990771Y-95959523D01*
X229990771Y-95959523D02*
X229800295Y-95911904D01*
X229800295Y-95911904D02*
X229705057Y-95864285D01*
X229705057Y-95864285D02*
X229657438Y-95816666D01*
X229657438Y-95816666D02*
X229609819Y-95721428D01*
X228438095Y-45179819D02*
X228438095Y-44179819D01*
X228438095Y-44656009D02*
X229009523Y-44656009D01*
X229009523Y-45179819D02*
X229009523Y-44179819D01*
X230009523Y-45179819D02*
X229438095Y-45179819D01*
X229723809Y-45179819D02*
X229723809Y-44179819D01*
X229723809Y-44179819D02*
X229628571Y-44322676D01*
X229628571Y-44322676D02*
X229533333Y-44417914D01*
X229533333Y-44417914D02*
X229438095Y-44465533D01*
D11*
X216185237Y-66499318D02*
X216185237Y-65229318D01*
X217515714Y-66378365D02*
X217455238Y-66438842D01*
X217455238Y-66438842D02*
X217273809Y-66499318D01*
X217273809Y-66499318D02*
X217152857Y-66499318D01*
X217152857Y-66499318D02*
X216971428Y-66438842D01*
X216971428Y-66438842D02*
X216850476Y-66317889D01*
X216850476Y-66317889D02*
X216789999Y-66196937D01*
X216789999Y-66196937D02*
X216729523Y-65955032D01*
X216729523Y-65955032D02*
X216729523Y-65773603D01*
X216729523Y-65773603D02*
X216789999Y-65531699D01*
X216789999Y-65531699D02*
X216850476Y-65410746D01*
X216850476Y-65410746D02*
X216971428Y-65289794D01*
X216971428Y-65289794D02*
X217152857Y-65229318D01*
X217152857Y-65229318D02*
X217273809Y-65229318D01*
X217273809Y-65229318D02*
X217455238Y-65289794D01*
X217455238Y-65289794D02*
X217515714Y-65350270D01*
X218725238Y-66499318D02*
X217999523Y-66499318D01*
X218362380Y-66499318D02*
X218362380Y-65229318D01*
X218362380Y-65229318D02*
X218241428Y-65410746D01*
X218241428Y-65410746D02*
X218120476Y-65531699D01*
X218120476Y-65531699D02*
X217999523Y-65592175D01*
D10*
X219086905Y-103554819D02*
X219086905Y-102554819D01*
X219086905Y-102554819D02*
X219325000Y-102554819D01*
X219325000Y-102554819D02*
X219467857Y-102602438D01*
X219467857Y-102602438D02*
X219563095Y-102697676D01*
X219563095Y-102697676D02*
X219610714Y-102792914D01*
X219610714Y-102792914D02*
X219658333Y-102983390D01*
X219658333Y-102983390D02*
X219658333Y-103126247D01*
X219658333Y-103126247D02*
X219610714Y-103316723D01*
X219610714Y-103316723D02*
X219563095Y-103411961D01*
X219563095Y-103411961D02*
X219467857Y-103507200D01*
X219467857Y-103507200D02*
X219325000Y-103554819D01*
X219325000Y-103554819D02*
X219086905Y-103554819D01*
X219991667Y-102554819D02*
X220610714Y-102554819D01*
X220610714Y-102554819D02*
X220277381Y-102935771D01*
X220277381Y-102935771D02*
X220420238Y-102935771D01*
X220420238Y-102935771D02*
X220515476Y-102983390D01*
X220515476Y-102983390D02*
X220563095Y-103031009D01*
X220563095Y-103031009D02*
X220610714Y-103126247D01*
X220610714Y-103126247D02*
X220610714Y-103364342D01*
X220610714Y-103364342D02*
X220563095Y-103459580D01*
X220563095Y-103459580D02*
X220515476Y-103507200D01*
X220515476Y-103507200D02*
X220420238Y-103554819D01*
X220420238Y-103554819D02*
X220134524Y-103554819D01*
X220134524Y-103554819D02*
X220039286Y-103507200D01*
X220039286Y-103507200D02*
X219991667Y-103459580D01*
X220038095Y-98654819D02*
X220038095Y-99464342D01*
X220038095Y-99464342D02*
X220085714Y-99559580D01*
X220085714Y-99559580D02*
X220133333Y-99607200D01*
X220133333Y-99607200D02*
X220228571Y-99654819D01*
X220228571Y-99654819D02*
X220419047Y-99654819D01*
X220419047Y-99654819D02*
X220514285Y-99607200D01*
X220514285Y-99607200D02*
X220561904Y-99559580D01*
X220561904Y-99559580D02*
X220609523Y-99464342D01*
X220609523Y-99464342D02*
X220609523Y-98654819D01*
X221514285Y-98988152D02*
X221514285Y-99654819D01*
X221276190Y-98607200D02*
X221038095Y-99321485D01*
X221038095Y-99321485D02*
X221657142Y-99321485D01*
X216154819Y-107133333D02*
X216869104Y-107133333D01*
X216869104Y-107133333D02*
X217011961Y-107180952D01*
X217011961Y-107180952D02*
X217107200Y-107276190D01*
X217107200Y-107276190D02*
X217154819Y-107419047D01*
X217154819Y-107419047D02*
X217154819Y-107514285D01*
X216488152Y-106228571D02*
X217154819Y-106228571D01*
X216107200Y-106466666D02*
X216821485Y-106704761D01*
X216821485Y-106704761D02*
X216821485Y-106085714D01*
X221309580Y-68504166D02*
X221357200Y-68551785D01*
X221357200Y-68551785D02*
X221404819Y-68694642D01*
X221404819Y-68694642D02*
X221404819Y-68789880D01*
X221404819Y-68789880D02*
X221357200Y-68932737D01*
X221357200Y-68932737D02*
X221261961Y-69027975D01*
X221261961Y-69027975D02*
X221166723Y-69075594D01*
X221166723Y-69075594D02*
X220976247Y-69123213D01*
X220976247Y-69123213D02*
X220833390Y-69123213D01*
X220833390Y-69123213D02*
X220642914Y-69075594D01*
X220642914Y-69075594D02*
X220547676Y-69027975D01*
X220547676Y-69027975D02*
X220452438Y-68932737D01*
X220452438Y-68932737D02*
X220404819Y-68789880D01*
X220404819Y-68789880D02*
X220404819Y-68694642D01*
X220404819Y-68694642D02*
X220452438Y-68551785D01*
X220452438Y-68551785D02*
X220500057Y-68504166D01*
X220500057Y-68123213D02*
X220452438Y-68075594D01*
X220452438Y-68075594D02*
X220404819Y-67980356D01*
X220404819Y-67980356D02*
X220404819Y-67742261D01*
X220404819Y-67742261D02*
X220452438Y-67647023D01*
X220452438Y-67647023D02*
X220500057Y-67599404D01*
X220500057Y-67599404D02*
X220595295Y-67551785D01*
X220595295Y-67551785D02*
X220690533Y-67551785D01*
X220690533Y-67551785D02*
X220833390Y-67599404D01*
X220833390Y-67599404D02*
X221404819Y-68170832D01*
X221404819Y-68170832D02*
X221404819Y-67551785D01*
X229908333Y-87129580D02*
X229860714Y-87177200D01*
X229860714Y-87177200D02*
X229717857Y-87224819D01*
X229717857Y-87224819D02*
X229622619Y-87224819D01*
X229622619Y-87224819D02*
X229479762Y-87177200D01*
X229479762Y-87177200D02*
X229384524Y-87081961D01*
X229384524Y-87081961D02*
X229336905Y-86986723D01*
X229336905Y-86986723D02*
X229289286Y-86796247D01*
X229289286Y-86796247D02*
X229289286Y-86653390D01*
X229289286Y-86653390D02*
X229336905Y-86462914D01*
X229336905Y-86462914D02*
X229384524Y-86367676D01*
X229384524Y-86367676D02*
X229479762Y-86272438D01*
X229479762Y-86272438D02*
X229622619Y-86224819D01*
X229622619Y-86224819D02*
X229717857Y-86224819D01*
X229717857Y-86224819D02*
X229860714Y-86272438D01*
X229860714Y-86272438D02*
X229908333Y-86320057D01*
X230479762Y-86653390D02*
X230384524Y-86605771D01*
X230384524Y-86605771D02*
X230336905Y-86558152D01*
X230336905Y-86558152D02*
X230289286Y-86462914D01*
X230289286Y-86462914D02*
X230289286Y-86415295D01*
X230289286Y-86415295D02*
X230336905Y-86320057D01*
X230336905Y-86320057D02*
X230384524Y-86272438D01*
X230384524Y-86272438D02*
X230479762Y-86224819D01*
X230479762Y-86224819D02*
X230670238Y-86224819D01*
X230670238Y-86224819D02*
X230765476Y-86272438D01*
X230765476Y-86272438D02*
X230813095Y-86320057D01*
X230813095Y-86320057D02*
X230860714Y-86415295D01*
X230860714Y-86415295D02*
X230860714Y-86462914D01*
X230860714Y-86462914D02*
X230813095Y-86558152D01*
X230813095Y-86558152D02*
X230765476Y-86605771D01*
X230765476Y-86605771D02*
X230670238Y-86653390D01*
X230670238Y-86653390D02*
X230479762Y-86653390D01*
X230479762Y-86653390D02*
X230384524Y-86701009D01*
X230384524Y-86701009D02*
X230336905Y-86748628D01*
X230336905Y-86748628D02*
X230289286Y-86843866D01*
X230289286Y-86843866D02*
X230289286Y-87034342D01*
X230289286Y-87034342D02*
X230336905Y-87129580D01*
X230336905Y-87129580D02*
X230384524Y-87177200D01*
X230384524Y-87177200D02*
X230479762Y-87224819D01*
X230479762Y-87224819D02*
X230670238Y-87224819D01*
X230670238Y-87224819D02*
X230765476Y-87177200D01*
X230765476Y-87177200D02*
X230813095Y-87129580D01*
X230813095Y-87129580D02*
X230860714Y-87034342D01*
X230860714Y-87034342D02*
X230860714Y-86843866D01*
X230860714Y-86843866D02*
X230813095Y-86748628D01*
X230813095Y-86748628D02*
X230765476Y-86701009D01*
X230765476Y-86701009D02*
X230670238Y-86653390D01*
D11*
X227482856Y-47074318D02*
X227482856Y-45804318D01*
X227482856Y-45804318D02*
X227966666Y-45804318D01*
X227966666Y-45804318D02*
X228087618Y-45864794D01*
X228087618Y-45864794D02*
X228148095Y-45925270D01*
X228148095Y-45925270D02*
X228208571Y-46046222D01*
X228208571Y-46046222D02*
X228208571Y-46227651D01*
X228208571Y-46227651D02*
X228148095Y-46348603D01*
X228148095Y-46348603D02*
X228087618Y-46409080D01*
X228087618Y-46409080D02*
X227966666Y-46469556D01*
X227966666Y-46469556D02*
X227482856Y-46469556D01*
X228692380Y-47013842D02*
X228873809Y-47074318D01*
X228873809Y-47074318D02*
X229176190Y-47074318D01*
X229176190Y-47074318D02*
X229297142Y-47013842D01*
X229297142Y-47013842D02*
X229357618Y-46953365D01*
X229357618Y-46953365D02*
X229418095Y-46832413D01*
X229418095Y-46832413D02*
X229418095Y-46711461D01*
X229418095Y-46711461D02*
X229357618Y-46590508D01*
X229357618Y-46590508D02*
X229297142Y-46530032D01*
X229297142Y-46530032D02*
X229176190Y-46469556D01*
X229176190Y-46469556D02*
X228934285Y-46409080D01*
X228934285Y-46409080D02*
X228813333Y-46348603D01*
X228813333Y-46348603D02*
X228752856Y-46288127D01*
X228752856Y-46288127D02*
X228692380Y-46167175D01*
X228692380Y-46167175D02*
X228692380Y-46046222D01*
X228692380Y-46046222D02*
X228752856Y-45925270D01*
X228752856Y-45925270D02*
X228813333Y-45864794D01*
X228813333Y-45864794D02*
X228934285Y-45804318D01*
X228934285Y-45804318D02*
X229236666Y-45804318D01*
X229236666Y-45804318D02*
X229418095Y-45864794D01*
X230627619Y-47074318D02*
X229901904Y-47074318D01*
X230264761Y-47074318D02*
X230264761Y-45804318D01*
X230264761Y-45804318D02*
X230143809Y-45985746D01*
X230143809Y-45985746D02*
X230022857Y-46106699D01*
X230022857Y-46106699D02*
X229901904Y-46167175D01*
D10*
X210966667Y-102532200D02*
X211109524Y-102579819D01*
X211109524Y-102579819D02*
X211347619Y-102579819D01*
X211347619Y-102579819D02*
X211442857Y-102532200D01*
X211442857Y-102532200D02*
X211490476Y-102484580D01*
X211490476Y-102484580D02*
X211538095Y-102389342D01*
X211538095Y-102389342D02*
X211538095Y-102294104D01*
X211538095Y-102294104D02*
X211490476Y-102198866D01*
X211490476Y-102198866D02*
X211442857Y-102151247D01*
X211442857Y-102151247D02*
X211347619Y-102103628D01*
X211347619Y-102103628D02*
X211157143Y-102056009D01*
X211157143Y-102056009D02*
X211061905Y-102008390D01*
X211061905Y-102008390D02*
X211014286Y-101960771D01*
X211014286Y-101960771D02*
X210966667Y-101865533D01*
X210966667Y-101865533D02*
X210966667Y-101770295D01*
X210966667Y-101770295D02*
X211014286Y-101675057D01*
X211014286Y-101675057D02*
X211061905Y-101627438D01*
X211061905Y-101627438D02*
X211157143Y-101579819D01*
X211157143Y-101579819D02*
X211395238Y-101579819D01*
X211395238Y-101579819D02*
X211538095Y-101627438D01*
X211871429Y-101579819D02*
X212109524Y-102579819D01*
X212109524Y-102579819D02*
X212300000Y-101865533D01*
X212300000Y-101865533D02*
X212490476Y-102579819D01*
X212490476Y-102579819D02*
X212728572Y-101579819D01*
X213633333Y-102579819D02*
X213061905Y-102579819D01*
X213347619Y-102579819D02*
X213347619Y-101579819D01*
X213347619Y-101579819D02*
X213252381Y-101722676D01*
X213252381Y-101722676D02*
X213157143Y-101817914D01*
X213157143Y-101817914D02*
X213061905Y-101865533D01*
X212286905Y-61754819D02*
X212286905Y-60754819D01*
X212286905Y-60754819D02*
X212525000Y-60754819D01*
X212525000Y-60754819D02*
X212667857Y-60802438D01*
X212667857Y-60802438D02*
X212763095Y-60897676D01*
X212763095Y-60897676D02*
X212810714Y-60992914D01*
X212810714Y-60992914D02*
X212858333Y-61183390D01*
X212858333Y-61183390D02*
X212858333Y-61326247D01*
X212858333Y-61326247D02*
X212810714Y-61516723D01*
X212810714Y-61516723D02*
X212763095Y-61611961D01*
X212763095Y-61611961D02*
X212667857Y-61707200D01*
X212667857Y-61707200D02*
X212525000Y-61754819D01*
X212525000Y-61754819D02*
X212286905Y-61754819D01*
X213239286Y-60850057D02*
X213286905Y-60802438D01*
X213286905Y-60802438D02*
X213382143Y-60754819D01*
X213382143Y-60754819D02*
X213620238Y-60754819D01*
X213620238Y-60754819D02*
X213715476Y-60802438D01*
X213715476Y-60802438D02*
X213763095Y-60850057D01*
X213763095Y-60850057D02*
X213810714Y-60945295D01*
X213810714Y-60945295D02*
X213810714Y-61040533D01*
X213810714Y-61040533D02*
X213763095Y-61183390D01*
X213763095Y-61183390D02*
X213191667Y-61754819D01*
X213191667Y-61754819D02*
X213810714Y-61754819D01*
X217113095Y-75679819D02*
X217113095Y-76489342D01*
X217113095Y-76489342D02*
X217160714Y-76584580D01*
X217160714Y-76584580D02*
X217208333Y-76632200D01*
X217208333Y-76632200D02*
X217303571Y-76679819D01*
X217303571Y-76679819D02*
X217494047Y-76679819D01*
X217494047Y-76679819D02*
X217589285Y-76632200D01*
X217589285Y-76632200D02*
X217636904Y-76584580D01*
X217636904Y-76584580D02*
X217684523Y-76489342D01*
X217684523Y-76489342D02*
X217684523Y-75679819D01*
X218065476Y-75679819D02*
X218684523Y-75679819D01*
X218684523Y-75679819D02*
X218351190Y-76060771D01*
X218351190Y-76060771D02*
X218494047Y-76060771D01*
X218494047Y-76060771D02*
X218589285Y-76108390D01*
X218589285Y-76108390D02*
X218636904Y-76156009D01*
X218636904Y-76156009D02*
X218684523Y-76251247D01*
X218684523Y-76251247D02*
X218684523Y-76489342D01*
X218684523Y-76489342D02*
X218636904Y-76584580D01*
X218636904Y-76584580D02*
X218589285Y-76632200D01*
X218589285Y-76632200D02*
X218494047Y-76679819D01*
X218494047Y-76679819D02*
X218208333Y-76679819D01*
X218208333Y-76679819D02*
X218113095Y-76632200D01*
X218113095Y-76632200D02*
X218065476Y-76584580D01*
X222857142Y-82309580D02*
X222809523Y-82357200D01*
X222809523Y-82357200D02*
X222666666Y-82404819D01*
X222666666Y-82404819D02*
X222571428Y-82404819D01*
X222571428Y-82404819D02*
X222428571Y-82357200D01*
X222428571Y-82357200D02*
X222333333Y-82261961D01*
X222333333Y-82261961D02*
X222285714Y-82166723D01*
X222285714Y-82166723D02*
X222238095Y-81976247D01*
X222238095Y-81976247D02*
X222238095Y-81833390D01*
X222238095Y-81833390D02*
X222285714Y-81642914D01*
X222285714Y-81642914D02*
X222333333Y-81547676D01*
X222333333Y-81547676D02*
X222428571Y-81452438D01*
X222428571Y-81452438D02*
X222571428Y-81404819D01*
X222571428Y-81404819D02*
X222666666Y-81404819D01*
X222666666Y-81404819D02*
X222809523Y-81452438D01*
X222809523Y-81452438D02*
X222857142Y-81500057D01*
X223809523Y-82404819D02*
X223238095Y-82404819D01*
X223523809Y-82404819D02*
X223523809Y-81404819D01*
X223523809Y-81404819D02*
X223428571Y-81547676D01*
X223428571Y-81547676D02*
X223333333Y-81642914D01*
X223333333Y-81642914D02*
X223238095Y-81690533D01*
X224142857Y-81404819D02*
X224761904Y-81404819D01*
X224761904Y-81404819D02*
X224428571Y-81785771D01*
X224428571Y-81785771D02*
X224571428Y-81785771D01*
X224571428Y-81785771D02*
X224666666Y-81833390D01*
X224666666Y-81833390D02*
X224714285Y-81881009D01*
X224714285Y-81881009D02*
X224761904Y-81976247D01*
X224761904Y-81976247D02*
X224761904Y-82214342D01*
X224761904Y-82214342D02*
X224714285Y-82309580D01*
X224714285Y-82309580D02*
X224666666Y-82357200D01*
X224666666Y-82357200D02*
X224571428Y-82404819D01*
X224571428Y-82404819D02*
X224285714Y-82404819D01*
X224285714Y-82404819D02*
X224190476Y-82357200D01*
X224190476Y-82357200D02*
X224142857Y-82309580D01*
X227233333Y-82754580D02*
X227185714Y-82802200D01*
X227185714Y-82802200D02*
X227042857Y-82849819D01*
X227042857Y-82849819D02*
X226947619Y-82849819D01*
X226947619Y-82849819D02*
X226804762Y-82802200D01*
X226804762Y-82802200D02*
X226709524Y-82706961D01*
X226709524Y-82706961D02*
X226661905Y-82611723D01*
X226661905Y-82611723D02*
X226614286Y-82421247D01*
X226614286Y-82421247D02*
X226614286Y-82278390D01*
X226614286Y-82278390D02*
X226661905Y-82087914D01*
X226661905Y-82087914D02*
X226709524Y-81992676D01*
X226709524Y-81992676D02*
X226804762Y-81897438D01*
X226804762Y-81897438D02*
X226947619Y-81849819D01*
X226947619Y-81849819D02*
X227042857Y-81849819D01*
X227042857Y-81849819D02*
X227185714Y-81897438D01*
X227185714Y-81897438D02*
X227233333Y-81945057D01*
X227566667Y-81849819D02*
X228233333Y-81849819D01*
X228233333Y-81849819D02*
X227804762Y-82849819D01*
X213716666Y-45404819D02*
X213716666Y-46119104D01*
X213716666Y-46119104D02*
X213669047Y-46261961D01*
X213669047Y-46261961D02*
X213573809Y-46357200D01*
X213573809Y-46357200D02*
X213430952Y-46404819D01*
X213430952Y-46404819D02*
X213335714Y-46404819D01*
X214716666Y-46404819D02*
X214145238Y-46404819D01*
X214430952Y-46404819D02*
X214430952Y-45404819D01*
X214430952Y-45404819D02*
X214335714Y-45547676D01*
X214335714Y-45547676D02*
X214240476Y-45642914D01*
X214240476Y-45642914D02*
X214145238Y-45690533D01*
X221661905Y-71429819D02*
X221661905Y-70429819D01*
X221661905Y-70429819D02*
X221900000Y-70429819D01*
X221900000Y-70429819D02*
X222042857Y-70477438D01*
X222042857Y-70477438D02*
X222138095Y-70572676D01*
X222138095Y-70572676D02*
X222185714Y-70667914D01*
X222185714Y-70667914D02*
X222233333Y-70858390D01*
X222233333Y-70858390D02*
X222233333Y-71001247D01*
X222233333Y-71001247D02*
X222185714Y-71191723D01*
X222185714Y-71191723D02*
X222138095Y-71286961D01*
X222138095Y-71286961D02*
X222042857Y-71382200D01*
X222042857Y-71382200D02*
X221900000Y-71429819D01*
X221900000Y-71429819D02*
X221661905Y-71429819D01*
X223185714Y-71429819D02*
X222614286Y-71429819D01*
X222900000Y-71429819D02*
X222900000Y-70429819D01*
X222900000Y-70429819D02*
X222804762Y-70572676D01*
X222804762Y-70572676D02*
X222709524Y-70667914D01*
X222709524Y-70667914D02*
X222614286Y-70715533D01*
X230382142Y-83659580D02*
X230334523Y-83707200D01*
X230334523Y-83707200D02*
X230191666Y-83754819D01*
X230191666Y-83754819D02*
X230096428Y-83754819D01*
X230096428Y-83754819D02*
X229953571Y-83707200D01*
X229953571Y-83707200D02*
X229858333Y-83611961D01*
X229858333Y-83611961D02*
X229810714Y-83516723D01*
X229810714Y-83516723D02*
X229763095Y-83326247D01*
X229763095Y-83326247D02*
X229763095Y-83183390D01*
X229763095Y-83183390D02*
X229810714Y-82992914D01*
X229810714Y-82992914D02*
X229858333Y-82897676D01*
X229858333Y-82897676D02*
X229953571Y-82802438D01*
X229953571Y-82802438D02*
X230096428Y-82754819D01*
X230096428Y-82754819D02*
X230191666Y-82754819D01*
X230191666Y-82754819D02*
X230334523Y-82802438D01*
X230334523Y-82802438D02*
X230382142Y-82850057D01*
X231334523Y-83754819D02*
X230763095Y-83754819D01*
X231048809Y-83754819D02*
X231048809Y-82754819D01*
X231048809Y-82754819D02*
X230953571Y-82897676D01*
X230953571Y-82897676D02*
X230858333Y-82992914D01*
X230858333Y-82992914D02*
X230763095Y-83040533D01*
X232191666Y-83088152D02*
X232191666Y-83754819D01*
X231953571Y-82707200D02*
X231715476Y-83421485D01*
X231715476Y-83421485D02*
X232334523Y-83421485D01*
X211557142Y-87659580D02*
X211509523Y-87707200D01*
X211509523Y-87707200D02*
X211366666Y-87754819D01*
X211366666Y-87754819D02*
X211271428Y-87754819D01*
X211271428Y-87754819D02*
X211128571Y-87707200D01*
X211128571Y-87707200D02*
X211033333Y-87611961D01*
X211033333Y-87611961D02*
X210985714Y-87516723D01*
X210985714Y-87516723D02*
X210938095Y-87326247D01*
X210938095Y-87326247D02*
X210938095Y-87183390D01*
X210938095Y-87183390D02*
X210985714Y-86992914D01*
X210985714Y-86992914D02*
X211033333Y-86897676D01*
X211033333Y-86897676D02*
X211128571Y-86802438D01*
X211128571Y-86802438D02*
X211271428Y-86754819D01*
X211271428Y-86754819D02*
X211366666Y-86754819D01*
X211366666Y-86754819D02*
X211509523Y-86802438D01*
X211509523Y-86802438D02*
X211557142Y-86850057D01*
X212509523Y-87754819D02*
X211938095Y-87754819D01*
X212223809Y-87754819D02*
X212223809Y-86754819D01*
X212223809Y-86754819D02*
X212128571Y-86897676D01*
X212128571Y-86897676D02*
X212033333Y-86992914D01*
X212033333Y-86992914D02*
X211938095Y-87040533D01*
X213461904Y-87754819D02*
X212890476Y-87754819D01*
X213176190Y-87754819D02*
X213176190Y-86754819D01*
X213176190Y-86754819D02*
X213080952Y-86897676D01*
X213080952Y-86897676D02*
X212985714Y-86992914D01*
X212985714Y-86992914D02*
X212890476Y-87040533D01*
X213358333Y-83184580D02*
X213310714Y-83232200D01*
X213310714Y-83232200D02*
X213167857Y-83279819D01*
X213167857Y-83279819D02*
X213072619Y-83279819D01*
X213072619Y-83279819D02*
X212929762Y-83232200D01*
X212929762Y-83232200D02*
X212834524Y-83136961D01*
X212834524Y-83136961D02*
X212786905Y-83041723D01*
X212786905Y-83041723D02*
X212739286Y-82851247D01*
X212739286Y-82851247D02*
X212739286Y-82708390D01*
X212739286Y-82708390D02*
X212786905Y-82517914D01*
X212786905Y-82517914D02*
X212834524Y-82422676D01*
X212834524Y-82422676D02*
X212929762Y-82327438D01*
X212929762Y-82327438D02*
X213072619Y-82279819D01*
X213072619Y-82279819D02*
X213167857Y-82279819D01*
X213167857Y-82279819D02*
X213310714Y-82327438D01*
X213310714Y-82327438D02*
X213358333Y-82375057D01*
X214263095Y-82279819D02*
X213786905Y-82279819D01*
X213786905Y-82279819D02*
X213739286Y-82756009D01*
X213739286Y-82756009D02*
X213786905Y-82708390D01*
X213786905Y-82708390D02*
X213882143Y-82660771D01*
X213882143Y-82660771D02*
X214120238Y-82660771D01*
X214120238Y-82660771D02*
X214215476Y-82708390D01*
X214215476Y-82708390D02*
X214263095Y-82756009D01*
X214263095Y-82756009D02*
X214310714Y-82851247D01*
X214310714Y-82851247D02*
X214310714Y-83089342D01*
X214310714Y-83089342D02*
X214263095Y-83184580D01*
X214263095Y-83184580D02*
X214215476Y-83232200D01*
X214215476Y-83232200D02*
X214120238Y-83279819D01*
X214120238Y-83279819D02*
X213882143Y-83279819D01*
X213882143Y-83279819D02*
X213786905Y-83232200D01*
X213786905Y-83232200D02*
X213739286Y-83184580D01*
X212758333Y-52554819D02*
X212425000Y-52078628D01*
X212186905Y-52554819D02*
X212186905Y-51554819D01*
X212186905Y-51554819D02*
X212567857Y-51554819D01*
X212567857Y-51554819D02*
X212663095Y-51602438D01*
X212663095Y-51602438D02*
X212710714Y-51650057D01*
X212710714Y-51650057D02*
X212758333Y-51745295D01*
X212758333Y-51745295D02*
X212758333Y-51888152D01*
X212758333Y-51888152D02*
X212710714Y-51983390D01*
X212710714Y-51983390D02*
X212663095Y-52031009D01*
X212663095Y-52031009D02*
X212567857Y-52078628D01*
X212567857Y-52078628D02*
X212186905Y-52078628D01*
X213139286Y-51650057D02*
X213186905Y-51602438D01*
X213186905Y-51602438D02*
X213282143Y-51554819D01*
X213282143Y-51554819D02*
X213520238Y-51554819D01*
X213520238Y-51554819D02*
X213615476Y-51602438D01*
X213615476Y-51602438D02*
X213663095Y-51650057D01*
X213663095Y-51650057D02*
X213710714Y-51745295D01*
X213710714Y-51745295D02*
X213710714Y-51840533D01*
X213710714Y-51840533D02*
X213663095Y-51983390D01*
X213663095Y-51983390D02*
X213091667Y-52554819D01*
X213091667Y-52554819D02*
X213710714Y-52554819D01*
X230514580Y-91616666D02*
X230562200Y-91664285D01*
X230562200Y-91664285D02*
X230609819Y-91807142D01*
X230609819Y-91807142D02*
X230609819Y-91902380D01*
X230609819Y-91902380D02*
X230562200Y-92045237D01*
X230562200Y-92045237D02*
X230466961Y-92140475D01*
X230466961Y-92140475D02*
X230371723Y-92188094D01*
X230371723Y-92188094D02*
X230181247Y-92235713D01*
X230181247Y-92235713D02*
X230038390Y-92235713D01*
X230038390Y-92235713D02*
X229847914Y-92188094D01*
X229847914Y-92188094D02*
X229752676Y-92140475D01*
X229752676Y-92140475D02*
X229657438Y-92045237D01*
X229657438Y-92045237D02*
X229609819Y-91902380D01*
X229609819Y-91902380D02*
X229609819Y-91807142D01*
X229609819Y-91807142D02*
X229657438Y-91664285D01*
X229657438Y-91664285D02*
X229705057Y-91616666D01*
X229609819Y-90759523D02*
X229609819Y-90949999D01*
X229609819Y-90949999D02*
X229657438Y-91045237D01*
X229657438Y-91045237D02*
X229705057Y-91092856D01*
X229705057Y-91092856D02*
X229847914Y-91188094D01*
X229847914Y-91188094D02*
X230038390Y-91235713D01*
X230038390Y-91235713D02*
X230419342Y-91235713D01*
X230419342Y-91235713D02*
X230514580Y-91188094D01*
X230514580Y-91188094D02*
X230562200Y-91140475D01*
X230562200Y-91140475D02*
X230609819Y-91045237D01*
X230609819Y-91045237D02*
X230609819Y-90854761D01*
X230609819Y-90854761D02*
X230562200Y-90759523D01*
X230562200Y-90759523D02*
X230514580Y-90711904D01*
X230514580Y-90711904D02*
X230419342Y-90664285D01*
X230419342Y-90664285D02*
X230181247Y-90664285D01*
X230181247Y-90664285D02*
X230086009Y-90711904D01*
X230086009Y-90711904D02*
X230038390Y-90759523D01*
X230038390Y-90759523D02*
X229990771Y-90854761D01*
X229990771Y-90854761D02*
X229990771Y-91045237D01*
X229990771Y-91045237D02*
X230038390Y-91140475D01*
X230038390Y-91140475D02*
X230086009Y-91188094D01*
X230086009Y-91188094D02*
X230181247Y-91235713D01*
X212834580Y-71916666D02*
X212882200Y-71964285D01*
X212882200Y-71964285D02*
X212929819Y-72107142D01*
X212929819Y-72107142D02*
X212929819Y-72202380D01*
X212929819Y-72202380D02*
X212882200Y-72345237D01*
X212882200Y-72345237D02*
X212786961Y-72440475D01*
X212786961Y-72440475D02*
X212691723Y-72488094D01*
X212691723Y-72488094D02*
X212501247Y-72535713D01*
X212501247Y-72535713D02*
X212358390Y-72535713D01*
X212358390Y-72535713D02*
X212167914Y-72488094D01*
X212167914Y-72488094D02*
X212072676Y-72440475D01*
X212072676Y-72440475D02*
X211977438Y-72345237D01*
X211977438Y-72345237D02*
X211929819Y-72202380D01*
X211929819Y-72202380D02*
X211929819Y-72107142D01*
X211929819Y-72107142D02*
X211977438Y-71964285D01*
X211977438Y-71964285D02*
X212025057Y-71916666D01*
X211929819Y-71583332D02*
X211929819Y-70964285D01*
X211929819Y-70964285D02*
X212310771Y-71297618D01*
X212310771Y-71297618D02*
X212310771Y-71154761D01*
X212310771Y-71154761D02*
X212358390Y-71059523D01*
X212358390Y-71059523D02*
X212406009Y-71011904D01*
X212406009Y-71011904D02*
X212501247Y-70964285D01*
X212501247Y-70964285D02*
X212739342Y-70964285D01*
X212739342Y-70964285D02*
X212834580Y-71011904D01*
X212834580Y-71011904D02*
X212882200Y-71059523D01*
X212882200Y-71059523D02*
X212929819Y-71154761D01*
X212929819Y-71154761D02*
X212929819Y-71440475D01*
X212929819Y-71440475D02*
X212882200Y-71535713D01*
X212882200Y-71535713D02*
X212834580Y-71583332D01*
X225582142Y-102234580D02*
X225534523Y-102282200D01*
X225534523Y-102282200D02*
X225391666Y-102329819D01*
X225391666Y-102329819D02*
X225296428Y-102329819D01*
X225296428Y-102329819D02*
X225153571Y-102282200D01*
X225153571Y-102282200D02*
X225058333Y-102186961D01*
X225058333Y-102186961D02*
X225010714Y-102091723D01*
X225010714Y-102091723D02*
X224963095Y-101901247D01*
X224963095Y-101901247D02*
X224963095Y-101758390D01*
X224963095Y-101758390D02*
X225010714Y-101567914D01*
X225010714Y-101567914D02*
X225058333Y-101472676D01*
X225058333Y-101472676D02*
X225153571Y-101377438D01*
X225153571Y-101377438D02*
X225296428Y-101329819D01*
X225296428Y-101329819D02*
X225391666Y-101329819D01*
X225391666Y-101329819D02*
X225534523Y-101377438D01*
X225534523Y-101377438D02*
X225582142Y-101425057D01*
X226534523Y-102329819D02*
X225963095Y-102329819D01*
X226248809Y-102329819D02*
X226248809Y-101329819D01*
X226248809Y-101329819D02*
X226153571Y-101472676D01*
X226153571Y-101472676D02*
X226058333Y-101567914D01*
X226058333Y-101567914D02*
X225963095Y-101615533D01*
X226915476Y-101425057D02*
X226963095Y-101377438D01*
X226963095Y-101377438D02*
X227058333Y-101329819D01*
X227058333Y-101329819D02*
X227296428Y-101329819D01*
X227296428Y-101329819D02*
X227391666Y-101377438D01*
X227391666Y-101377438D02*
X227439285Y-101425057D01*
X227439285Y-101425057D02*
X227486904Y-101520295D01*
X227486904Y-101520295D02*
X227486904Y-101615533D01*
X227486904Y-101615533D02*
X227439285Y-101758390D01*
X227439285Y-101758390D02*
X226867857Y-102329819D01*
X226867857Y-102329819D02*
X227486904Y-102329819D01*
X217304819Y-73116666D02*
X216828628Y-73449999D01*
X217304819Y-73688094D02*
X216304819Y-73688094D01*
X216304819Y-73688094D02*
X216304819Y-73307142D01*
X216304819Y-73307142D02*
X216352438Y-73211904D01*
X216352438Y-73211904D02*
X216400057Y-73164285D01*
X216400057Y-73164285D02*
X216495295Y-73116666D01*
X216495295Y-73116666D02*
X216638152Y-73116666D01*
X216638152Y-73116666D02*
X216733390Y-73164285D01*
X216733390Y-73164285D02*
X216781009Y-73211904D01*
X216781009Y-73211904D02*
X216828628Y-73307142D01*
X216828628Y-73307142D02*
X216828628Y-73688094D01*
X217304819Y-72164285D02*
X217304819Y-72735713D01*
X217304819Y-72449999D02*
X216304819Y-72449999D01*
X216304819Y-72449999D02*
X216447676Y-72545237D01*
X216447676Y-72545237D02*
X216542914Y-72640475D01*
X216542914Y-72640475D02*
X216590533Y-72735713D01*
X214333333Y-100959580D02*
X214285714Y-101007200D01*
X214285714Y-101007200D02*
X214142857Y-101054819D01*
X214142857Y-101054819D02*
X214047619Y-101054819D01*
X214047619Y-101054819D02*
X213904762Y-101007200D01*
X213904762Y-101007200D02*
X213809524Y-100911961D01*
X213809524Y-100911961D02*
X213761905Y-100816723D01*
X213761905Y-100816723D02*
X213714286Y-100626247D01*
X213714286Y-100626247D02*
X213714286Y-100483390D01*
X213714286Y-100483390D02*
X213761905Y-100292914D01*
X213761905Y-100292914D02*
X213809524Y-100197676D01*
X213809524Y-100197676D02*
X213904762Y-100102438D01*
X213904762Y-100102438D02*
X214047619Y-100054819D01*
X214047619Y-100054819D02*
X214142857Y-100054819D01*
X214142857Y-100054819D02*
X214285714Y-100102438D01*
X214285714Y-100102438D02*
X214333333Y-100150057D01*
X214809524Y-101054819D02*
X215000000Y-101054819D01*
X215000000Y-101054819D02*
X215095238Y-101007200D01*
X215095238Y-101007200D02*
X215142857Y-100959580D01*
X215142857Y-100959580D02*
X215238095Y-100816723D01*
X215238095Y-100816723D02*
X215285714Y-100626247D01*
X215285714Y-100626247D02*
X215285714Y-100245295D01*
X215285714Y-100245295D02*
X215238095Y-100150057D01*
X215238095Y-100150057D02*
X215190476Y-100102438D01*
X215190476Y-100102438D02*
X215095238Y-100054819D01*
X215095238Y-100054819D02*
X214904762Y-100054819D01*
X214904762Y-100054819D02*
X214809524Y-100102438D01*
X214809524Y-100102438D02*
X214761905Y-100150057D01*
X214761905Y-100150057D02*
X214714286Y-100245295D01*
X214714286Y-100245295D02*
X214714286Y-100483390D01*
X214714286Y-100483390D02*
X214761905Y-100578628D01*
X214761905Y-100578628D02*
X214809524Y-100626247D01*
X214809524Y-100626247D02*
X214904762Y-100673866D01*
X214904762Y-100673866D02*
X215095238Y-100673866D01*
X215095238Y-100673866D02*
X215190476Y-100626247D01*
X215190476Y-100626247D02*
X215238095Y-100578628D01*
X215238095Y-100578628D02*
X215285714Y-100483390D01*
X213238095Y-122129819D02*
X213238095Y-121129819D01*
X213238095Y-121606009D02*
X213809523Y-121606009D01*
X213809523Y-122129819D02*
X213809523Y-121129819D01*
X214238095Y-121225057D02*
X214285714Y-121177438D01*
X214285714Y-121177438D02*
X214380952Y-121129819D01*
X214380952Y-121129819D02*
X214619047Y-121129819D01*
X214619047Y-121129819D02*
X214714285Y-121177438D01*
X214714285Y-121177438D02*
X214761904Y-121225057D01*
X214761904Y-121225057D02*
X214809523Y-121320295D01*
X214809523Y-121320295D02*
X214809523Y-121415533D01*
X214809523Y-121415533D02*
X214761904Y-121558390D01*
X214761904Y-121558390D02*
X214190476Y-122129819D01*
X214190476Y-122129819D02*
X214809523Y-122129819D01*
X224066666Y-115979819D02*
X224066666Y-116694104D01*
X224066666Y-116694104D02*
X224019047Y-116836961D01*
X224019047Y-116836961D02*
X223923809Y-116932200D01*
X223923809Y-116932200D02*
X223780952Y-116979819D01*
X223780952Y-116979819D02*
X223685714Y-116979819D01*
X224495238Y-116075057D02*
X224542857Y-116027438D01*
X224542857Y-116027438D02*
X224638095Y-115979819D01*
X224638095Y-115979819D02*
X224876190Y-115979819D01*
X224876190Y-115979819D02*
X224971428Y-116027438D01*
X224971428Y-116027438D02*
X225019047Y-116075057D01*
X225019047Y-116075057D02*
X225066666Y-116170295D01*
X225066666Y-116170295D02*
X225066666Y-116265533D01*
X225066666Y-116265533D02*
X225019047Y-116408390D01*
X225019047Y-116408390D02*
X224447619Y-116979819D01*
X224447619Y-116979819D02*
X225066666Y-116979819D01*
X227263095Y-65379819D02*
X227263095Y-66189342D01*
X227263095Y-66189342D02*
X227310714Y-66284580D01*
X227310714Y-66284580D02*
X227358333Y-66332200D01*
X227358333Y-66332200D02*
X227453571Y-66379819D01*
X227453571Y-66379819D02*
X227644047Y-66379819D01*
X227644047Y-66379819D02*
X227739285Y-66332200D01*
X227739285Y-66332200D02*
X227786904Y-66284580D01*
X227786904Y-66284580D02*
X227834523Y-66189342D01*
X227834523Y-66189342D02*
X227834523Y-65379819D01*
X228834523Y-66379819D02*
X228263095Y-66379819D01*
X228548809Y-66379819D02*
X228548809Y-65379819D01*
X228548809Y-65379819D02*
X228453571Y-65522676D01*
X228453571Y-65522676D02*
X228358333Y-65617914D01*
X228358333Y-65617914D02*
X228263095Y-65665533D01*
X212259580Y-67666666D02*
X212307200Y-67714285D01*
X212307200Y-67714285D02*
X212354819Y-67857142D01*
X212354819Y-67857142D02*
X212354819Y-67952380D01*
X212354819Y-67952380D02*
X212307200Y-68095237D01*
X212307200Y-68095237D02*
X212211961Y-68190475D01*
X212211961Y-68190475D02*
X212116723Y-68238094D01*
X212116723Y-68238094D02*
X211926247Y-68285713D01*
X211926247Y-68285713D02*
X211783390Y-68285713D01*
X211783390Y-68285713D02*
X211592914Y-68238094D01*
X211592914Y-68238094D02*
X211497676Y-68190475D01*
X211497676Y-68190475D02*
X211402438Y-68095237D01*
X211402438Y-68095237D02*
X211354819Y-67952380D01*
X211354819Y-67952380D02*
X211354819Y-67857142D01*
X211354819Y-67857142D02*
X211402438Y-67714285D01*
X211402438Y-67714285D02*
X211450057Y-67666666D01*
X212354819Y-66714285D02*
X212354819Y-67285713D01*
X212354819Y-66999999D02*
X211354819Y-66999999D01*
X211354819Y-66999999D02*
X211497676Y-67095237D01*
X211497676Y-67095237D02*
X211592914Y-67190475D01*
X211592914Y-67190475D02*
X211640533Y-67285713D01*
D12*
%TO.C,J3*%
X227645000Y-112655000D02*
X227645000Y-110005000D01*
X230405000Y-110005000D02*
X227645000Y-110005000D01*
X230405000Y-112655000D02*
X227645000Y-112655000D01*
X230405000Y-112655000D02*
X230405000Y-110005000D01*
X230405000Y-113925000D02*
X230405000Y-115305000D01*
X230405000Y-115305000D02*
X229025000Y-115305000D01*
%TO.C,C10*%
X227740000Y-96388748D02*
X227740000Y-96911252D01*
X229210000Y-96388748D02*
X229210000Y-96911252D01*
D13*
%TO.C,IC1*%
X219175000Y-67000000D02*
G75*
G02*
X218925000Y-67000000I-125000J0D01*
G01*
X218925000Y-67000000D02*
G75*
G02*
X219175000Y-67000000I125000J0D01*
G01*
D12*
%TO.C,D3*%
X217515000Y-100100000D02*
X217515000Y-102100000D01*
X217515000Y-100100000D02*
X221525000Y-100100000D01*
X217515000Y-102100000D02*
X221525000Y-102100000D01*
%TO.C,U4*%
X215690000Y-86690000D02*
X216640000Y-86690000D01*
X215690000Y-87640000D02*
X215690000Y-86690000D01*
X215690000Y-96910000D02*
X215690000Y-95960000D01*
X216640000Y-96910000D02*
X215690000Y-96910000D01*
X224960000Y-86690000D02*
X225910000Y-86690000D01*
X225910000Y-86690000D02*
X225910000Y-87640000D01*
X225910000Y-95960000D02*
X225910000Y-96910000D01*
X225910000Y-96910000D02*
X224960000Y-96910000D01*
X226890000Y-96430000D02*
X226210000Y-96430000D01*
X226550000Y-95960000D01*
X226890000Y-96430000D01*
G36*
X226890000Y-96430000D02*
G01*
X226210000Y-96430000D01*
X226550000Y-95960000D01*
X226890000Y-96430000D01*
G37*
%TO.C,J4*%
X217700000Y-108180000D02*
X217700000Y-106800000D01*
X219080000Y-108180000D02*
X217700000Y-108180000D01*
X220350000Y-105420000D02*
X230620000Y-105420000D01*
X220350000Y-108180000D02*
X220350000Y-105420000D01*
X220350000Y-108180000D02*
X230620000Y-108180000D01*
X230620000Y-108180000D02*
X230620000Y-105420000D01*
%TO.C,C2*%
X222215000Y-68163748D02*
X222215000Y-68686252D01*
X223685000Y-68163748D02*
X223685000Y-68686252D01*
%TO.C,C8*%
X229813748Y-87715000D02*
X230336252Y-87715000D01*
X229813748Y-89185000D02*
X230336252Y-89185000D01*
D14*
%TO.C,PS1*%
X220276000Y-48910000D02*
X228276000Y-48910000D01*
X220276000Y-64150000D02*
X220276000Y-48910000D01*
X228276000Y-48910000D02*
X228276000Y-64150000D01*
X228276000Y-64150000D02*
X220276000Y-64150000D01*
D15*
X230976000Y-61530000D02*
X230976000Y-61530000D01*
X230976000Y-61730000D02*
X230976000Y-61730000D01*
X230976000Y-61530000D02*
G75*
G02*
X230976000Y-61730000I0J-100000D01*
G01*
X230976000Y-61730000D02*
G75*
G02*
X230976000Y-61530000I0J100000D01*
G01*
D12*
%TO.C,SW1*%
X210895000Y-103260000D02*
X212275000Y-103260000D01*
X210895000Y-104640000D02*
X210895000Y-103260000D01*
X210895000Y-105910000D02*
X210895000Y-116180000D01*
X210895000Y-105910000D02*
X213655000Y-105910000D01*
X210895000Y-116180000D02*
X213655000Y-116180000D01*
X213655000Y-105910000D02*
X213655000Y-116180000D01*
%TO.C,D2*%
X210640000Y-58300000D02*
X210640000Y-60300000D01*
X210640000Y-58300000D02*
X214650000Y-58300000D01*
X210640000Y-60300000D02*
X214650000Y-60300000D01*
%TO.C,U3*%
X216340000Y-78290000D02*
X216390000Y-78290000D01*
X216340000Y-80110000D02*
X216340000Y-78290000D01*
X216390000Y-80110000D02*
X216340000Y-80110000D01*
X217510000Y-78290000D02*
X218290000Y-78290000D01*
X219410000Y-78290000D02*
X219460000Y-78290000D01*
X219460000Y-78290000D02*
X219460000Y-80110000D01*
X219460000Y-80110000D02*
X219410000Y-80110000D01*
X216390000Y-80650000D02*
X216060000Y-80890000D01*
X216060000Y-80410000D01*
X216390000Y-80650000D01*
G36*
X216390000Y-80650000D02*
G01*
X216060000Y-80890000D01*
X216060000Y-80410000D01*
X216390000Y-80650000D01*
G37*
%TO.C,C13*%
X221140000Y-76140000D02*
X221140000Y-77340000D01*
X221140000Y-80660000D02*
X221140000Y-79460000D01*
X224595563Y-76140000D02*
X221140000Y-76140000D01*
X224595563Y-80660000D02*
X221140000Y-80660000D01*
X225660000Y-77204437D02*
X224595563Y-76140000D01*
X225660000Y-77204437D02*
X225660000Y-77340000D01*
X225660000Y-79595563D02*
X224595563Y-80660000D01*
X225660000Y-79595563D02*
X225660000Y-79460000D01*
X226150000Y-80210000D02*
X226150000Y-79710000D01*
X226400000Y-79960000D02*
X225900000Y-79960000D01*
%TO.C,C7*%
X227138748Y-83340000D02*
X227661252Y-83340000D01*
X227138748Y-84810000D02*
X227661252Y-84810000D01*
%TO.C,J1*%
X215700000Y-43075000D02*
G75*
G02*
X215686411Y-39612337I4749999J1749999D01*
G01*
X218700000Y-36575000D02*
G75*
G02*
X222162663Y-36561411I1749999J-4749999D01*
G01*
X222200000Y-46075000D02*
G75*
G02*
X218737337Y-46088589I-1750000J4750000D01*
G01*
X225200000Y-39575000D02*
G75*
G02*
X225213589Y-43037663I-4750000J-1750000D01*
G01*
%TO.C,D1*%
X220840000Y-73140000D02*
X220890000Y-73140000D01*
X220840000Y-74660000D02*
X220840000Y-73140000D01*
X221840000Y-74660000D02*
X220840000Y-74660000D01*
X222010000Y-73140000D02*
X222790000Y-73140000D01*
X223910000Y-73140000D02*
X223960000Y-73140000D01*
X223960000Y-73140000D02*
X223960000Y-74660000D01*
X223960000Y-74660000D02*
X222960000Y-74660000D01*
X222780000Y-72600000D02*
X222450000Y-72840000D01*
X222450000Y-72360000D01*
X222780000Y-72600000D01*
G36*
X222780000Y-72600000D02*
G01*
X222450000Y-72840000D01*
X222450000Y-72360000D01*
X222780000Y-72600000D01*
G37*
%TO.C,C14*%
X227440000Y-77804437D02*
X227440000Y-81260000D01*
X227440000Y-81260000D02*
X228640000Y-81260000D01*
X228504437Y-76740000D02*
X227440000Y-77804437D01*
X228504437Y-76740000D02*
X228640000Y-76740000D01*
X230895563Y-76740000D02*
X230760000Y-76740000D01*
X230895563Y-76740000D02*
X231960000Y-77804437D01*
X231260000Y-76000000D02*
X231260000Y-76500000D01*
X231510000Y-76250000D02*
X231010000Y-76250000D01*
X231960000Y-77804437D02*
X231960000Y-81260000D01*
X231960000Y-81260000D02*
X230760000Y-81260000D01*
%TO.C,C11*%
X214413748Y-84715000D02*
X214936252Y-84715000D01*
X214413748Y-86185000D02*
X214936252Y-86185000D01*
%TO.C,C5*%
X211240000Y-77104437D02*
X211240000Y-80560000D01*
X211240000Y-80560000D02*
X212440000Y-80560000D01*
X212304437Y-76040000D02*
X211240000Y-77104437D01*
X212304437Y-76040000D02*
X212440000Y-76040000D01*
X214695563Y-76040000D02*
X214560000Y-76040000D01*
X214695563Y-76040000D02*
X215760000Y-77104437D01*
X215060000Y-75300000D02*
X215060000Y-75800000D01*
X215310000Y-75550000D02*
X214810000Y-75550000D01*
X215760000Y-77104437D02*
X215760000Y-80560000D01*
X215760000Y-80560000D02*
X214560000Y-80560000D01*
%TO.C,R2*%
X212985242Y-53215000D02*
X212564758Y-53215000D01*
X212985242Y-57185000D02*
X212564758Y-57185000D01*
%TO.C,C6*%
X227740000Y-91188748D02*
X227740000Y-91711252D01*
X229210000Y-91188748D02*
X229210000Y-91711252D01*
%TO.C,C3*%
X213615000Y-71438748D02*
X213615000Y-71961252D01*
X215085000Y-71438748D02*
X215085000Y-71961252D01*
%TO.C,C12*%
X225340000Y-98788748D02*
X225340000Y-99311252D01*
X226810000Y-98788748D02*
X226810000Y-99311252D01*
%TO.C,R1*%
X218015000Y-73127064D02*
X218015000Y-72672936D01*
X219485000Y-73127064D02*
X219485000Y-72672936D01*
%TO.C,C9*%
X213740000Y-97588748D02*
X213740000Y-98111252D01*
X215210000Y-97588748D02*
X215210000Y-98111252D01*
%TO.C,J2*%
X217645000Y-117915000D02*
X218975000Y-117915000D01*
X217645000Y-119025000D02*
X217645000Y-117915000D01*
X217645000Y-120485000D02*
X233005000Y-120485000D01*
X217645000Y-129115000D02*
X217645000Y-120485000D01*
X217645000Y-129115000D02*
X233005000Y-129115000D01*
X217765000Y-129115000D02*
X217765000Y-120485000D01*
X217883095Y-129115000D02*
X217883095Y-120485000D01*
X218001190Y-129115000D02*
X218001190Y-120485000D01*
X218119285Y-129115000D02*
X218119285Y-120485000D01*
X218237380Y-129115000D02*
X218237380Y-120485000D01*
X218355475Y-129115000D02*
X218355475Y-120485000D01*
X218473570Y-129115000D02*
X218473570Y-120485000D01*
X218591665Y-129115000D02*
X218591665Y-120485000D01*
X218615000Y-120485000D02*
X218615000Y-120135000D01*
X218709760Y-129115000D02*
X218709760Y-120485000D01*
X218827855Y-129115000D02*
X218827855Y-120485000D01*
X218945950Y-129115000D02*
X218945950Y-120485000D01*
X219064045Y-129115000D02*
X219064045Y-120485000D01*
X219182140Y-129115000D02*
X219182140Y-120485000D01*
X219300235Y-129115000D02*
X219300235Y-120485000D01*
X219335000Y-120485000D02*
X219335000Y-120135000D01*
X219418330Y-129115000D02*
X219418330Y-120485000D01*
X219536425Y-129115000D02*
X219536425Y-120485000D01*
X219654520Y-129115000D02*
X219654520Y-120485000D01*
X219772615Y-129115000D02*
X219772615Y-120485000D01*
X219890710Y-129115000D02*
X219890710Y-120485000D01*
X220008805Y-129115000D02*
X220008805Y-120485000D01*
X220126900Y-129115000D02*
X220126900Y-120485000D01*
X220245000Y-129115000D02*
X220245000Y-120485000D01*
X221155000Y-120485000D02*
X221155000Y-120075000D01*
X221875000Y-120485000D02*
X221875000Y-120075000D01*
X222785000Y-129115000D02*
X222785000Y-120485000D01*
X223695000Y-120485000D02*
X223695000Y-120075000D01*
X224415000Y-120485000D02*
X224415000Y-120075000D01*
X225325000Y-129115000D02*
X225325000Y-120485000D01*
X226235000Y-120485000D02*
X226235000Y-120075000D01*
X226955000Y-120485000D02*
X226955000Y-120075000D01*
X227865000Y-129115000D02*
X227865000Y-120485000D01*
X228775000Y-120485000D02*
X228775000Y-120075000D01*
X229495000Y-120485000D02*
X229495000Y-120075000D01*
X230405000Y-129115000D02*
X230405000Y-120485000D01*
X231315000Y-120485000D02*
X231315000Y-120075000D01*
X232035000Y-120485000D02*
X232035000Y-120075000D01*
X233005000Y-129115000D02*
X233005000Y-120485000D01*
%TO.C,U1*%
X224677000Y-69190000D02*
X225937000Y-69190000D01*
X224677000Y-72950000D02*
X224677000Y-69190000D01*
X231497000Y-69190000D02*
X230237000Y-69190000D01*
X231497000Y-72950000D02*
X231497000Y-69190000D01*
X224777000Y-74230000D02*
X224447000Y-74470000D01*
X224447000Y-73990000D01*
X224777000Y-74230000D01*
G36*
X224777000Y-74230000D02*
G01*
X224447000Y-74470000D01*
X224447000Y-73990000D01*
X224777000Y-74230000D01*
G37*
%TO.C,C1*%
X213090000Y-67786252D02*
X213090000Y-67263748D01*
X214560000Y-67786252D02*
X214560000Y-67263748D01*
%TD*%
M02*
