M48
; DRILL file {KiCad 9.0.1} date 2026-04-16T12:08:16+0200
; FORMAT={-:-/ absolute / metric / decimal}
; #@! TF.CreationDate,2026-04-16T12:08:16+02:00
; #@! TF.GenerationSoftware,Kicad,Pcbnew,9.0.1
; #@! TF.FileFunction,Plated,1,2,PTH
FMAT,2
METRIC
; #@! TA.AperFunction,Plated,PTH,ViaDrill
T1C0.300
; #@! TA.AperFunction,Plated,PTH,ViaDrill
T2C0.400
; #@! TA.AperFunction,Plated,PTH,ComponentDrill
T3C1.000
; #@! TA.AperFunction,Plated,PTH,ComponentDrill
T4C1.270
; #@! TA.AperFunction,Plated,PTH,ComponentDrill
T5C1.524
; #@! TA.AperFunction,Plated,PTH,ComponentDrill
T6C3.200
%
G90
G05
T1
X219.375Y-75.525
X229.037Y-86.75
X230.95Y-94.75
T2
X213.5Y-74.35
X213.7Y-94.1
X213.825Y-63.375
X215.525Y-65.475
X215.9Y-83.1
X215.95Y-101.15
X216.8Y-65.275
X217.1Y-94.1
X217.1Y-99.362
X218.3Y-104.775
X219.775Y-66.275
X219.925Y-83.525
X220.0Y-82.1
X220.2Y-81.1
X220.2Y-81.1
X224.95Y-88.85
X229.851Y-92.525
T3
X212.275Y-104.64
X212.275Y-107.18
X212.275Y-109.72
X212.275Y-112.26
X212.275Y-114.8
X218.975Y-119.025
X219.08Y-106.8
X221.515Y-119.025
X221.62Y-106.8
X224.055Y-119.025
X224.16Y-106.8
X226.595Y-119.025
X226.7Y-106.8
X229.025Y-111.385
X229.025Y-113.925
X229.135Y-119.025
X229.24Y-106.8
X231.675Y-119.025
T4
X220.45Y-41.325
T5
X217.275Y-38.15
X217.275Y-44.5
X223.625Y-38.15
X223.625Y-44.5
T6
X214.0Y-125.425
X229.35Y-39.2
M30
